<mxfile host="app.diagrams.net" agent="Mozilla/5.0 (Macintosh; Intel Mac OS X 10_15_7) AppleWebKit/537.36 (KHTML, like Gecko) Chrome/137.0.0.0 Safari/537.36" version="27.1.4">
  <diagram name="第 1 页" id="RNXwua9HZB_wjvtBTNIJ">
    <mxGraphModel dx="2305" dy="1126" grid="1" gridSize="10" guides="1" tooltips="1" connect="1" arrows="1" fold="1" page="1" pageScale="1" pageWidth="827" pageHeight="1169" math="0" shadow="0">
      <root>
        <mxCell id="0" />
        <mxCell id="1" parent="0" />
        <mxCell id="oyAcYKCACCrX0ME6ZKw6-1" value="1.获取layout&#xa;是的,没有源码的情况下,我们主要通过实时分析工具。以下是推荐的方法：&#xa;&#xa;1. Layout Inspector (最实用):&#xa;```&#xa;步骤：&#xa;1. 连接设备/模拟器&#xa;2. 打开目标应用&#xa;3. Android Studio -&gt; Tools -&gt; Layout Inspector&#xa;4. 选择目标进程&#xa;&#xa;可以获取：&#xa;- 实时布局层级&#xa;- View属性值&#xa;- 布局参数&#xa;- 实际尺寸&#xa;```&#xa;&#xa;2. uiautomatorviewer:&#xa;```&#xa;步骤：&#xa;1. 打开 Android SDK/tools/bin/uiautomatorviewer&#xa;2. 连接设备&#xa;3. 点击截图按钮&#xa;&#xa;可以获取：&#xa;- 控件层级&#xa;- 基本属性&#xa;- 位置信息&#xa;- 控件类型&#xa;```&#xa;&#xa;3. Android开发者选项：&#xa;```&#xa;开启以下选项：&#xa;- 显示布局边界&#xa;- 显示GPU过度绘制&#xa;- 调试GPU渲染&#xa;- 显示刷新率&#xa;&#xa;帮助观察：&#xa;- 控件边界&#xa;- 布局嵌套&#xa;- 渲染效率&#xa;```&#xa;&#xa;4. 实际操作建议：&#xa;```&#xa;1. 系统地记录每个界面：&#xa;   - 截图保存&#xa;   - 导出布局信息&#xa;   - 记录页面跳转&#xa;&#xa;2. 重点关注：&#xa;   - 控件类型&#xa;   - 布局参数&#xa;   - 样式属性&#xa;   - 层级关系&#xa;&#xa;3. 特别注意：&#xa;   - 列表项布局&#xa;   - 自定义控件&#xa;   - 弹窗设计&#xa;   - 动画效果&#xa;```&#xa;&#xa;5. 建立文档结构：&#xa;```&#xa;项目文档/&#xa;├── layouts/&#xa;│   ├── main_page.xml&#xa;│   ├── detail_page.xml&#xa;│   └── ...&#xa;├── screenshots/&#xa;│   ├── main_page.png&#xa;│   ├── detail_page.png&#xa;│   └── ...&#xa;├── navigation.md&#xa;└── notes.md&#xa;```&#xa;&#xa;6. 记录要点：&#xa;```&#xa;每个界面记录：&#xa;- 基本布局类型&#xa;- 主要控件层级&#xa;- 关键控件属性&#xa;- 特殊效果实现&#xa;- 交互行为&#xa;```&#xa;&#xa;7. 分析技巧：&#xa;```&#xa;- 多角度截图&#xa;- 不同状态记录&#xa;- 注意细节变化&#xa;- 标注重要参数&#xa;```&#xa;&#xa;8. 注意事项：&#xa;```&#xa;- 某些界面可能需要特定条件触发&#xa;- 动态效果需要多次观察&#xa;- 复杂控件可能需要特别处理&#xa;- 注意性能相关的实现细节&#xa;```&#xa;&#xa;工作流程建议：&#xa;```&#xa;1. 先做整体规划&#xa;2. 逐页面分析&#xa;3. 详细记录信息&#xa;4. 整理实现方案&#xa;5. 验证可行性&#xa;```&#xa;&#xa;这样的方法可以帮助你：&#xa;```&#xa;- 系统地收集信息&#xa;- 减少遗漏细节&#xa;- 提高开发效率&#xa;- 保证实现质量&#xa;```" style="text;whiteSpace=wrap;" vertex="1" parent="1">
          <mxGeometry x="50" y="90" width="290" height="40" as="geometry" />
        </mxCell>
      </root>
    </mxGraphModel>
  </diagram>
</mxfile>
